<svg width="387" height="352" viewBox="0 0 387 352" fill="none" xmlns="http://www.w3.org/2000/svg">
<path opacity="0.1" d="M212 51C197.938 51 187 62.7188 187 76V101H137V76C137 34.5938 170.594 1 212 1H287.781C342.469 1 387 45.5312 387 100.219C387 141.625 361.219 178.344 323.719 193.188L274.5 211.938V226V251H224.5V226V194.75V178.344L240.125 172.094L304.969 146.312C324.5 139.281 337 120.531 337 100.219C337 73.6562 314.344 51 287.781 51H212ZM274.5 301V351H224.5V301H274.5Z" fill="#BA0033"/>
<path opacity="0.2" d="M178 51C163.938 51 153 62.7188 153 76V101H103V76C103 34.5938 136.594 1 178 1H253.781C308.469 1 353 45.5312 353 100.219C353 141.625 327.219 178.344 289.719 193.188L240.5 211.938V226V251H190.5V226V194.75V178.344L206.125 172.094L270.969 146.312C290.5 139.281 303 120.531 303 100.219C303 73.6562 280.344 51 253.781 51H178ZM240.5 301V351H190.5V301H240.5Z" fill="#BA0033"/>
<path opacity="0.4" d="M144 51C129.938 51 119 62.7188 119 76V101H69V76C69 34.5938 102.594 1 144 1H219.781C274.469 1 319 45.5312 319 100.219C319 141.625 293.219 178.344 255.719 193.188L206.5 211.938V226V251H156.5V226V194.75V178.344L172.125 172.094L236.969 146.312C256.5 139.281 269 120.531 269 100.219C269 73.6562 246.344 51 219.781 51H144ZM206.5 301V351H156.5V301H206.5Z" fill="#BA0033"/>
<path d="M110 51C95.9375 51 85 62.7188 85 76V101H35V76C35 34.5938 68.5938 1 110 1H185.781C240.469 1 285 45.5312 285 100.219C285 141.625 259.219 178.344 221.719 193.188L172.5 211.938V226V251H122.5V226V194.75V178.344L138.125 172.094L202.969 146.312C222.5 139.281 235 120.531 235 100.219C235 73.6562 212.344 51 185.781 51H110ZM172.5 301V351H122.5V301H172.5Z" fill="#BA0033"/>
<path d="M76 51C61.9375 51 51 62.7188 51 76V101H1V76C1 34.5938 34.5938 1 76 1H151.781C206.469 1 251 45.5312 251 100.219C251 141.625 225.219 178.344 187.719 193.188L138.5 211.938V226V251H88.5V226V194.75V178.344L104.125 172.094L168.969 146.312C188.5 139.281 201 120.531 201 100.219C201 73.6562 178.344 51 151.781 51H76ZM138.5 301V351H88.5V301H138.5Z" stroke="#692933"/>
</svg>
