<svg width="229" height="186" viewBox="0 0 229 186" fill="none" xmlns="http://www.w3.org/2000/svg">
<path opacity="0.5" d="M147.318 146.596C146.957 146.275 146.732 145.829 146.687 145.348L145.842 136.191V126.281L144.802 114.856C144.761 114.412 144.87 113.967 145.112 113.592L149.469 106.827C149.837 106.256 150.47 105.91 151.15 105.91H151.436C152.5 105.91 153.363 105.047 153.363 103.983V103.484C153.363 102.695 154.002 102.056 154.791 102.056V102.056C155.275 102.056 155.727 102.301 155.99 102.708L156.915 104.139C157.326 104.774 157.343 105.587 156.96 106.239L156.245 107.454C155.934 107.985 155.395 108.342 154.785 108.423L153.882 108.544C153.358 108.614 152.944 109.024 152.87 109.548V109.548C152.755 110.364 153.49 111.044 154.294 110.865L154.928 110.724C155.543 110.587 156.182 110.817 156.568 111.314L157.935 113.072C158.296 113.536 158.434 114.134 158.314 114.709L157.777 117.283C157.66 117.842 157.221 118.277 156.661 118.389V118.389C155.74 118.574 155.246 119.584 155.666 120.424L156.293 121.681C156.418 121.93 156.489 122.203 156.502 122.481L157.209 137.661C157.214 137.779 157.239 137.897 157.282 138.007V138.007C157.668 138.997 159.093 138.916 159.365 137.89L161.469 129.94C161.674 129.167 162.32 128.59 163.111 128.473L167.499 127.827C167.856 127.774 168.221 127.823 168.551 127.968V127.968C169.75 128.493 170.085 130.036 169.214 131.011L167.768 132.63C167.066 133.415 167.282 134.65 168.209 135.149L168.268 135.181C168.595 135.358 168.842 135.651 168.959 136.003V136.003C169.175 136.648 169.807 137.059 170.484 136.993L174.035 136.649C174.648 136.59 175.187 136.219 175.462 135.669L175.601 135.39C176.05 134.491 177.225 134.253 177.988 134.908V134.908C178.592 135.427 179.492 135.401 180.065 134.849L183.268 131.765C183.734 131.316 184.388 131.121 185.024 131.24L185.305 131.293C186.255 131.471 187.197 130.944 187.543 130.041L188.839 126.648C189.135 125.874 189.879 125.362 190.708 125.362H193.232C193.786 125.362 194.315 125.592 194.693 125.996L196.03 127.427C196.437 127.862 196.628 128.456 196.553 129.047L195.809 134.838C195.773 135.124 195.798 135.414 195.884 135.69L196.128 136.467C196.436 137.453 197.445 138.042 198.456 137.825L198.603 137.793C199.017 137.704 199.449 137.749 199.836 137.922L200.187 138.078C200.634 138.277 200.974 138.659 201.12 139.125V139.125C201.462 140.219 202.765 140.67 203.71 140.021L203.923 139.874C204.437 139.521 204.745 138.937 204.745 138.313V137.045C204.745 136.401 205.083 135.804 205.635 135.472V135.472C206.858 134.737 208.415 135.618 208.415 137.045V138.996C208.415 139.323 208.335 139.645 208.182 139.933L207.072 142.027C206.871 142.408 206.797 142.843 206.863 143.269L207.434 146.979C207.475 147.245 207.57 147.5 207.712 147.729L209.017 149.832C209.763 151.035 211.576 150.81 212.007 149.462V149.462C212.059 149.299 212.086 149.128 212.086 148.957V143.796C212.086 143.391 212.254 143.003 212.55 142.725V142.725C213.488 141.847 215.022 142.511 215.022 143.796V147.866C215.022 148.269 215.143 148.663 215.371 148.995L215.57 149.286C216.411 150.517 218.255 150.427 218.973 149.12L219.288 148.547C219.378 148.384 219.444 148.209 219.486 148.027L220.029 145.64C220.214 144.824 220.917 144.229 221.752 144.18V144.18C222.721 144.123 223.574 144.812 223.722 145.771L224.541 151.085C224.556 151.186 224.564 151.288 224.564 151.39V154.464C224.564 154.756 224.628 155.045 224.752 155.31L226.945 160.009C227.068 160.274 227.132 160.563 227.132 160.855V162.98V162.98C227.132 163.995 226.31 164.817 225.295 164.817H224.859C224.213 164.817 223.606 165.129 223.231 165.655L222.456 166.741C222.167 167.145 221.701 167.385 221.204 167.385V167.385C220.405 167.385 219.739 166.774 219.671 165.978L219.36 162.329C219.29 161.506 218.719 160.813 217.925 160.586V160.586C216.655 160.222 215.389 161.176 215.389 162.498V166.604C215.389 167.088 215.132 167.535 214.713 167.778V167.778C213.942 168.227 212.954 167.822 212.719 166.961L211.049 160.836C211.006 160.676 210.942 160.522 210.861 160.378L206.545 152.74C206.336 152.371 205.97 152.118 205.551 152.053V152.053C204.669 151.918 203.891 152.639 203.96 153.528L204.193 156.557L204.342 160.997C204.364 161.662 204.054 162.295 203.515 162.685L201.858 163.883C201.363 164.241 201.058 164.806 201.032 165.416L200.913 168.15C200.898 168.489 200.97 168.827 201.122 169.131L201.518 169.923C201.707 170.301 201.771 170.73 201.702 171.147L201.262 173.78C201.145 174.478 200.669 175.063 200.008 175.317L196.932 176.502C196.76 176.568 196.598 176.658 196.45 176.769L194.751 178.045C193.921 178.668 192.73 178.12 192.665 177.084V177.084C192.645 176.773 192.737 176.465 192.924 176.216L195.681 172.554C195.85 172.329 195.97 172.071 196.032 171.797L197.04 167.385L197.999 164.638C198.203 164.056 198.126 163.411 197.791 162.893L197.051 161.75C196.602 161.054 195.77 160.708 194.959 160.879L194.471 160.982C193.517 161.183 192.846 162.044 192.886 163.019L192.973 165.205C192.992 165.664 192.851 166.117 192.575 166.485L191.714 167.632C191.476 167.95 191.147 168.19 190.771 168.321L189.711 168.689C188.449 169.128 187.13 168.19 187.13 166.854V165.939C187.13 165.503 186.811 165.133 186.38 165.068V165.068C186.101 165.026 185.819 165.12 185.621 165.321L180.481 170.546C180.387 170.641 180.284 170.726 180.174 170.801L173.198 175.507C173.065 175.596 172.923 175.669 172.773 175.725L159.068 180.787C158.7 180.923 158.38 181.164 158.148 181.48L156.167 184.182C155.79 184.696 155.191 185 154.554 185H151.308C150.971 185 150.64 184.915 150.345 184.753L148.599 183.794C147.747 183.325 147.355 182.311 147.671 181.391L151.031 171.621C151.117 171.37 151.153 171.103 151.135 170.838L151.103 170.351C151.033 169.3 150.16 168.484 149.107 168.484H148.062C147.696 168.484 147.346 168.629 147.088 168.887L145.811 170.166C145.416 170.562 144.739 170.282 144.739 169.722V169.722C144.739 169.633 144.759 169.544 144.796 169.462L145.297 168.361C145.527 167.856 145.96 167.468 146.487 167.292V167.292C147.303 167.02 147.859 166.254 147.859 165.394V158.758C147.859 157.721 148.652 156.855 149.685 156.766L151.462 156.611C151.855 156.577 152.213 156.372 152.442 156.051V156.051C153.069 155.173 152.46 153.95 151.381 153.922L148.887 153.856C147.804 153.828 146.94 152.941 146.94 151.857V150.701C146.94 150.154 147.317 149.679 147.849 149.554V149.554C148.779 149.336 149.077 148.161 148.364 147.527L147.318 146.596Z" stroke="#BA0033" stroke-width="2"/>
<path opacity="0.5" d="M145.1 89.0566C145.102 89.0579 145.102 89.0618 145.1 89.063L142.564 90.1894C141.859 90.5025 141.037 90.1435 140.788 89.4137L139.972 87.0225C139.907 86.8312 139.813 86.6509 139.694 86.4877L137.644 83.6854C137.311 83.2306 137.186 82.6565 137.299 82.1044L137.74 79.9437C137.918 79.0726 137.5 78.1887 136.713 77.7741L132.018 75.2993C131.528 75.0413 130.954 74.9976 130.431 75.1787L127.935 76.0429C127.236 76.285 126.462 76.0317 126.041 75.4233V75.4233C125.523 74.6748 124.496 74.4878 123.748 75.0057L122.423 75.9226C121.863 76.3101 121.539 76.9558 121.562 77.6363L121.656 80.37C121.684 81.1795 121.023 81.8444 120.213 81.8206V81.8206C119.357 81.7954 118.723 81.0157 118.873 80.1726L119.231 78.1644C119.292 77.8225 119.262 77.4706 119.146 77.1434L118.217 74.5335C117.99 73.8966 117.457 73.4173 116.8 73.2594L113.831 72.5463C113.461 72.4574 113.073 72.476 112.713 72.6001L109.389 73.7455C108.615 74.0121 108.24 74.8884 108.582 75.6322V75.6322C108.809 76.1265 108.725 76.7079 108.368 77.1184L103.762 82.4164C103.557 82.6522 103.41 82.9327 103.333 83.2356L102.083 88.1533C102.015 88.4181 101.894 88.6662 101.728 88.8824L96.7037 95.3909C96.4945 95.6619 96.3584 95.982 96.3084 96.3207L95.7004 100.435C95.6141 101.019 95.1844 101.494 94.6119 101.637V101.637C93.754 101.852 92.904 101.26 92.8079 100.381L92.6044 98.5181C92.5064 97.6211 91.8198 96.9008 90.9285 96.7599L85.5479 95.9093C85.4923 95.9005 85.4361 95.8961 85.3797 95.8961H84.2568C83.7894 95.8961 83.5341 95.351 83.8333 94.992V94.992C83.938 94.8663 84.0932 94.7936 84.2568 94.7936H90.0538L90.8506 94.8243C91.7803 94.8601 92.6118 94.2502 92.8569 93.3527L93.1184 92.3952C93.2144 92.0437 93.4047 91.725 93.6685 91.4738L97.0012 88.3C97.08 88.2249 97.1526 88.1435 97.2182 88.0565L100.942 83.1236C101.023 83.0158 101.072 82.8875 101.085 82.753V82.753C101.144 82.1009 100.376 81.7111 99.8849 82.1439L97.5676 84.1851C97.4534 84.2857 97.3247 84.3685 97.1858 84.4309L96.442 84.7648C95.6914 85.1019 94.8603 84.4905 94.9585 83.6735V83.6735C94.992 83.395 95.1347 83.1412 95.3553 82.9679L101.433 78.1939L104.492 75.2968C104.772 75.0317 104.969 74.6913 105.06 74.3167L105.505 72.4824C105.603 72.0795 105.824 71.7169 106.136 71.4449L109.161 68.8152C109.614 68.421 109.867 67.8439 109.848 67.2434L109.844 67.1343C109.811 66.0788 108.963 65.2308 107.908 65.1978L104.454 65.0897C104.1 65.0786 103.75 65.1615 103.439 65.3298L99.6425 67.3847C99.5532 67.433 99.4603 67.4745 99.3647 67.5088L95.3392 68.95C94.2629 69.3353 93.0831 68.7417 92.7512 67.6477L92.662 67.3537C92.5209 66.8888 92.2093 66.4944 91.7897 66.2496V66.2496C91.4952 66.0779 91.1604 65.9874 90.8195 65.9874H89.7238C89.2478 65.9874 88.8073 66.2393 88.5659 66.6495L87.4073 68.6187C86.9292 69.4314 85.6807 69.0078 85.7958 68.072V68.072C85.8636 67.5206 85.4037 67.048 84.8507 67.1008L84.3876 67.145C84.137 67.1689 83.885 67.1161 83.665 66.9936L83.5441 66.9263C82.8494 66.5393 81.9788 66.6901 81.4546 67.2881L79.9736 68.9777C79.618 69.3834 79.1136 69.6282 78.5749 69.6566L78.3762 69.667C77.4535 69.7157 76.6176 69.1259 76.354 68.2403L74.9527 63.5319C74.9032 63.3656 74.8322 63.2063 74.7416 63.0583L73.9866 61.8249C73.6021 61.1968 72.9035 60.8308 72.1682 60.8723L64.361 61.3127C63.8651 61.3406 63.3764 61.183 62.9903 60.8705L61.2822 59.4883C60.9071 59.1848 60.4349 59.0271 59.9526 59.0443L58.1077 59.1103C57.3369 59.1378 56.619 58.7198 56.2626 58.0358L55.1965 55.9899L53.7462 53.5015C53.4455 52.9855 53.3911 52.3622 53.5978 51.802L54.1469 50.3141C54.2061 50.1537 54.2444 49.9864 54.2611 49.8162L54.6175 46.1682C54.7147 45.1728 54.0617 44.2586 53.0886 44.0277L50.2119 43.3453C49.7882 43.2448 49.4088 43.0087 49.1315 42.6729L47.5446 40.7514C47.1647 40.2914 46.5992 40.025 46.0025 40.025H44.3396C43.2593 40.025 42.3743 39.1672 42.3405 38.0875L42.2956 36.6496C42.2753 36.0031 41.9438 35.4063 41.4055 35.0477L38.5467 33.1429L36.88 31.6726C36.4685 31.3097 35.8867 31.2116 35.379 31.4196V31.4196C34.3775 31.8298 33.2977 31.032 33.3958 29.9541L33.4481 29.3792C33.5305 28.4731 32.9053 27.655 32.0094 27.4966L31.8474 27.4679C31.4699 27.4012 31.0818 27.4951 30.7766 27.727V27.727C29.76 28.4993 28.3315 27.5893 28.6017 26.3415L28.755 25.6336C28.8576 25.1602 28.7458 24.6656 28.4497 24.2822L27.01 22.4183C26.7306 22.0566 26.3357 21.8014 25.8911 21.6954L25.0471 21.4942C24.243 21.3025 23.6636 20.6006 23.6276 19.7747V19.7747C23.5845 18.785 22.7696 18.0048 21.7789 18.0048H21.4607C20.9472 18.0048 20.4533 17.8073 20.0814 17.4531L18.094 15.5605C17.8812 15.3578 17.6264 15.2046 17.3477 15.1116L13.7871 13.9236C13.4217 13.8017 13.0994 13.577 12.8587 13.2763L9.47502 9.04944C9.40708 8.96457 9.33233 8.88538 9.25152 8.81266L5.60967 5.53537C5.36873 5.31855 5.1841 5.04642 5.07168 4.74241L4.01941 1.89695C3.83758 1.40527 3.37571 1.07299 2.85173 1.05689V1.05689C1.95478 1.02933 1.30564 1.90502 1.59277 2.75521L5.84059 15.3332C5.90115 15.5125 5.98686 15.6824 6.09516 15.8376L7.27505 17.5289C7.51794 17.877 7.89704 18.1059 8.31825 18.1587L8.77606 18.216C9.17763 18.2664 9.56309 18.0413 9.71666 17.6669L9.82944 17.3919C9.98626 17.0095 10.4542 16.8669 10.7976 17.0969V17.0969C10.9465 17.1966 11.0479 17.3531 11.0781 17.5298L11.897 22.3237C11.9665 22.7307 11.9084 23.1492 11.7306 23.5219L10.7516 25.5732C10.5494 25.9971 10.5634 26.4923 10.7893 26.904V26.904C11.0701 27.4157 11.6288 27.7109 12.2098 27.6545L15.5311 27.3323C15.775 27.3086 16.0125 27.2403 16.2317 27.1308L18.7486 25.8736C19.5469 25.4749 20.5127 25.6532 21.116 26.3107L22.4799 27.7972C23.0332 28.4002 23.1633 29.2793 22.8084 30.0166L21.521 32.6919L19.8746 37.2974C19.7263 37.7121 19.7191 38.1643 19.8541 38.5835L20.0043 39.05C20.2418 39.7878 20.8843 40.322 21.653 40.4208L22.4918 40.5286C23.0198 40.5965 23.499 40.8721 23.8232 41.2944L24.6407 42.3595C24.901 42.6985 25.263 42.9452 25.6737 43.0635L28.4237 43.8555C29.0726 44.0424 29.5834 44.5442 29.7819 45.1897L31.5113 50.8156C31.5438 50.9214 31.5675 51.0297 31.5821 51.1394L32.458 57.7188L33.0894 61.9583C33.164 62.4596 33.4262 62.9138 33.8229 63.2292L35.4197 64.4988C35.6394 64.6735 35.8198 64.8925 35.9494 65.1415L38.1159 69.3075C38.4602 69.9694 39.1442 70.3847 39.8903 70.3847H40.5206C41.3878 70.3847 42.1562 70.9436 42.4233 71.7686L42.6999 72.6229C42.8131 72.9726 43.0206 73.2843 43.2994 73.5239L48.3798 77.888C48.9142 78.347 49.1677 79.0533 49.0471 79.7474L48.4803 83.0111C48.3926 83.5164 48.5023 84.0361 48.7867 84.4627L50.8634 87.5777C51.0777 87.8992 51.1943 88.2758 51.1991 88.6621L51.2449 92.3112C51.2574 93.3156 50.5234 94.1742 49.527 94.3015C48.2791 94.4609 46.7463 94.6358 46.3224 94.5932C45.8681 94.5475 44.7749 94.3907 43.9874 94.2747C43.4215 94.1914 42.847 94.3516 42.4076 94.7176L39.0194 97.5395C38.7454 97.7677 38.4154 97.9185 38.0636 97.9763L29.343 99.4086C28.8387 99.4914 28.3217 99.378 27.8983 99.0916L21.6066 94.8358C21.2999 94.6283 20.94 94.5132 20.5698 94.5041V94.5041C19.3023 94.4731 18.348 95.6491 18.6393 96.883L18.9194 98.0697C18.9961 98.3945 19.1528 98.6948 19.3752 98.9435L20.5131 100.216C21.1348 100.911 21.1768 101.949 20.6133 102.692L20.5479 102.778C20.053 103.431 19.1812 103.669 18.4231 103.359L18.3461 103.327C16.734 102.668 15.2308 104.476 16.1734 105.94V105.94C16.4653 106.394 16.536 106.955 16.3656 107.467L15.7198 109.407C15.6321 109.67 15.4907 109.913 15.3044 110.118L14.2839 111.245C13.7553 111.828 13.6182 112.667 13.9337 113.389L17.0153 120.435C17.0624 120.543 17.1189 120.646 17.1841 120.744L19.8397 124.724C20.1837 125.24 20.7472 125.567 21.3654 125.61L23.7906 125.777C24.3869 125.818 24.9335 126.124 25.2807 126.611L26.9791 128.991L29.9668 134.528C30.0239 134.634 30.0904 134.734 30.1655 134.828L30.6363 135.416C31.6502 136.683 33.671 136.279 34.1197 134.72L34.4561 133.551C34.5598 133.19 34.8587 132.92 35.2275 132.853V132.853C35.7927 132.75 36.326 133.149 36.3859 133.721L36.7671 137.357C36.7896 137.572 36.8468 137.782 36.9365 137.978L40.0608 144.83C40.4363 145.653 41.3179 146.122 42.2104 145.973L43.7145 145.721C44.0921 145.658 44.48 145.704 44.8319 145.855L46.1901 146.437C46.9453 146.76 47.8214 146.589 48.3993 146.005L53.1917 141.162C53.9541 140.392 55.1916 140.369 55.982 141.111L61.7868 146.559C61.867 146.634 61.9544 146.702 62.0476 146.76V146.76C63.0985 147.417 64.4761 146.76 64.6257 145.529L65.0162 142.319C65.0399 142.124 65.0348 141.926 65.0009 141.733L64.0612 136.357C64.0232 136.139 63.9493 135.929 63.8425 135.735L61.3211 131.163C61.0227 130.622 61.2215 129.941 61.7643 129.645V129.645C62.1658 129.427 62.6599 129.476 63.011 129.768L66.9278 133.033C67.2191 133.276 67.5735 133.431 67.9496 133.48L78.7967 134.896C79.2138 134.95 79.6375 134.872 80.0075 134.672L93.9751 127.112L133.477 106.097C134.338 105.64 135.403 105.869 135.999 106.64L139.541 111.224C140.511 112.48 142.488 112.159 143.011 110.661L148.108 96.0756C148.29 95.5565 148.246 94.9853 147.988 94.4998L145.095 89.0614C145.093 89.0583 145.097 89.055 145.1 89.0566V89.0566Z" stroke="#BA0033" stroke-width="2"/>
</svg>
