<svg width="230" height="187" viewBox="0 0 230 187" fill="none" xmlns="http://www.w3.org/2000/svg">
<path opacity="0.5" d="M226.937 88.1781C227.097 87.9648 227.212 87.7217 227.277 87.463L228.018 84.5009C228.228 83.6597 227.872 82.7787 227.137 82.3194L219.34 77.4506C219.022 77.2522 218.655 77.147 218.28 77.147H203.77C203.522 77.147 203.275 77.1006 203.044 77.0102L179.857 67.9647C179.313 67.7525 178.889 67.3131 178.696 66.7619L171.282 45.5684C170.939 44.5868 169.9 44.0321 168.893 44.2925L158.404 47.0053C156.823 47.4144 155.444 45.8571 156.043 44.3367L160.946 31.8765C161.084 31.5241 161.12 31.1395 161.049 30.7675L156.053 4.71614C155.899 3.91109 155.269 3.28175 154.463 3.12821L144.617 1.25072C143.821 1.09899 143.013 1.44219 142.569 2.1199L132.101 18.1103C132.042 18.2009 131.975 18.2866 131.902 18.3664L127.79 22.852C126.752 23.9843 124.878 23.5723 124.411 22.109L121.17 11.9611C120.897 11.107 120.089 10.5388 119.193 10.5708L104.187 11.1072C104.092 11.1106 103.997 11.1207 103.904 11.1375L89.493 13.7295C89.1635 13.7887 88.8542 13.9297 88.5933 14.1396L57.7059 38.9906C57.2508 39.3568 56.6583 39.5057 56.0841 39.3982L35.3318 35.5127C34.9334 35.4381 34.5217 35.4863 34.1513 35.6509L17.8141 42.9133C16.7831 43.3716 16.335 44.5915 16.8243 45.6081L24.4971 61.551C24.7936 62.1672 24.7548 62.8922 24.3941 63.4731L12.9807 81.858C12.6475 82.3946 12.0805 82.7424 11.4511 82.7959L3.68147 83.4572C1.51562 83.6415 1.15727 86.6617 3.21985 87.3477L5.65707 88.1584C6.19076 88.3359 6.62504 88.7299 6.85347 89.2439L7.82417 91.428C8.35662 92.626 9.87844 92.9963 10.9018 92.1769L20.5553 84.4475C20.6933 84.3371 20.8452 84.2454 21.0072 84.1749L33.8113 78.6024C34.2245 78.4226 34.6863 78.3876 35.1218 78.503L53.6813 83.4224C54.3044 83.5875 54.8097 84.0429 55.0386 84.6454L83.4568 159.459C83.6847 160.059 84.1865 160.513 84.8061 160.68L98.2859 164.313C98.9168 164.483 99.4249 164.95 99.6467 165.565L106.475 184.483C106.794 185.368 107.688 185.911 108.621 185.787L133.363 182.483C133.642 182.445 133.909 182.35 134.148 182.203L161.49 165.342C161.665 165.234 161.855 165.154 162.054 165.104L172.905 162.385C173.378 162.267 173.792 161.98 174.068 161.578L200.842 122.594C200.955 122.431 201.042 122.252 201.101 122.063L204.244 112.086C204.448 111.437 204.969 110.936 205.625 110.757L210.462 109.438C210.891 109.321 211.269 109.064 211.536 108.709L226.937 88.1781Z" stroke="#BA0033" stroke-width="2"/>
</svg>
