<svg width="126" height="97" viewBox="0 0 126 97" fill="none" xmlns="http://www.w3.org/2000/svg">
<path d="M62.9802 73.2768L0 37.0544V65.7871L38.1168 87.5736L62.9802 73.2768Z" fill="#132A3F"/>
<path d="M62.9805 73.2768L125.961 37.0544V65.7871L87.8372 87.5736L62.9805 73.2768Z" fill="#132A3F"/>
<path opacity="0.7" d="M62.9805 81.9795V96.2762H87.8372L62.9805 81.9795Z" fill="#132A3F"/>
<path d="M62.9806 81.9795L38.1172 96.2762H62.9806V81.9795Z" fill="#132A3F"/>
<path opacity="0.7" d="M62.9805 0.832031L87.957 15.195L87.9171 30.2474L62.9805 73.2768V0.832031Z" fill="#132A3F"/>
<path d="M62.9804 73.2768V0.832031L38.0039 15.195L38.0438 30.2474L62.9804 73.2768Z" fill="#132A3F"/>
<path opacity="0.8" d="M62.9802 73.2768L38.0436 30.2474L24.9765 22.6914L0 37.0544L62.9802 73.2768Z" fill="#132A3F"/>
<path opacity="0.8" d="M62.9805 73.2768L87.9171 30.2474L100.984 22.6914L125.961 37.0544L62.9805 73.2768Z" fill="#132A3F"/>
</svg>
