<svg width="402" height="447" viewBox="0 0 402 447" fill="none" xmlns="http://www.w3.org/2000/svg">
<path opacity="0.1" d="M401 192.211L381.632 211.579L166.053 427.158L147.526 446.526L128.158 427.158L20.3684 319.368L1 300L39.7368 262.105L58.2632 281.474L147.526 369.895L343.737 173.684L363.105 154.316L401 192.211Z" fill="#BA0033"/>
<path opacity="0.2" d="M401 154L381.632 173.368L166.053 388.947L147.526 408.316L128.158 388.947L20.3684 281.158L1 261.789L39.7368 223.895L58.2632 243.263L147.526 331.684L343.737 135.474L363.105 116.105L401 154Z" fill="#BA0033"/>
<path opacity="0.4" d="M401 115.789L381.632 135.158L166.053 350.737L147.526 370.105L128.158 350.737L20.3684 242.947L1 223.579L39.7368 185.684L58.2632 205.053L147.526 293.474L343.737 97.2631L363.105 77.8947L401 115.789Z" fill="#BA0033"/>
<path d="M401 77.5789L381.632 96.9474L166.053 312.526L147.526 331.895L128.158 312.526L20.3684 204.737L1 185.368L39.7368 147.474L58.2632 166.842L147.526 255.263L343.737 59.0526L363.105 39.6842L401 77.5789Z" fill="#BA0033"/>
<path d="M401 39.3684L381.632 58.7368L166.053 274.316L147.526 293.684L128.158 274.316L20.3684 166.526L1 147.158L39.7368 109.263L58.2632 128.632L147.526 217.053L343.737 20.8421L363.105 1.47363L401 39.3684Z" stroke="#692933"/>
</svg>
