<?xml version="1.0" encoding="UTF-8"?>
<svg width="36px" height="25px" viewBox="0 0 36 25" version="1.1" xmlns="http://www.w3.org/2000/svg" xmlns:xlink="http://www.w3.org/1999/xlink">
    <title>enter</title>
    <g id="Desktop" stroke="none" stroke-width="1" fill="none" fill-rule="evenodd">
        <g id="Search" transform="translate(-1375.000000, -214.000000)" fill-rule="nonzero" fill="#ba0033">
            <g id="form" transform="translate(288.000000, 211.000000)">
                <g id="enter" transform="translate(1087.000000, 3.000000)">
                    <path d="M31.321902,0.00249267155 L20.0459223,0 L20.0459223,2.50002493 L31.321902,2.50002493 C32.0132139,2.50002493 32.5747331,3.06274553 32.5747331,3.75246774 L32.5747331,13.7500748 C32.5747331,14.439797 32.013089,15.0000249 31.321902,15.0000249 L4.79621075,15.0000249 L10.5272041,9.2822103 L8.75557678,7.51465691 L0,16.2499751 L8.77019252,25 L10.5418199,23.2324466 L4.79621075,17.5000499 L31.3220269,17.5000499 C33.3947135,17.5000499 35.0806452,15.8178705 35.0806452,13.7500748 L35.0806452,3.75246774 C35.0806452,1.68454743 33.3945886,0.00249267155 31.321902,0.00249267155 Z" id="Path"/>
                </g>
            </g>
        </g>
    </g>
</svg>