<svg width="46" height="41" viewBox="0 0 46 41" fill="none" xmlns="http://www.w3.org/2000/svg">
<path d="M13.9473 0.3125C11.6816 2.65625 10.2754 5.85938 10.2754 9.375C10.2754 11.4844 10.7441 13.3594 11.5254 15.0781C9.80664 15.3125 8.08789 15.7812 6.44727 16.7188C3.79102 18.2031 1.91602 20.3906 0.900391 22.9688C5.35352 19.2188 12.8535 18.75 16.8379 25.3125C20.7441 31.9531 16.6035 38.0469 10.9785 39.9219C13.791 40.3125 16.7598 39.8438 19.416 38.3594C20.9785 37.5 22.3066 36.25 23.3223 34.9219C24.416 36.25 25.7441 37.5 27.3066 38.3594C29.9629 39.8438 32.9316 40.3125 35.7441 39.9219C30.1191 38.0469 25.9785 31.9531 29.8848 25.3125C33.8691 18.75 41.4473 19.2188 45.9004 22.9688C44.8066 20.3906 42.9316 18.2031 40.2754 16.7188C38.7129 15.7812 36.916 15.3125 35.1973 15.0781C36.0566 13.3594 36.5254 11.4844 36.5254 9.375C36.5254 5.85938 35.1191 2.65625 32.7754 0.3125C34.7285 6.09375 31.6035 13.75 23.4004 13.75C15.1191 13.75 11.9941 6.09375 13.9473 0.3125ZM27.1504 21.25C27.1504 23.3594 25.4316 25 23.4004 25C21.291 25 19.6504 23.3594 19.6504 21.25C19.6504 19.2188 21.291 17.5 23.4004 17.5C25.4316 17.5 27.1504 19.2188 27.1504 21.25ZM23.4004 5C20.8223 5 18.4785 5.625 16.3691 6.64062C16.5254 7.10938 16.7598 7.5 16.9941 7.96875C17.6191 9.0625 18.5566 10 19.8848 10.5469C20.9785 10.2344 22.1504 10 23.4004 10C24.5723 10 25.7441 10.2344 26.8379 10.5469C28.166 10 29.1035 9.0625 29.7285 7.96875C30.041 7.5 30.1973 7.10938 30.3535 6.64062C28.2441 5.625 25.9004 5 23.4004 5ZM15.8223 29.6094C14.1816 28.2031 13.0098 26.25 12.4629 24.1406C11.3691 23.2812 10.1191 22.8906 8.86914 22.7344C8.32227 22.7344 7.69727 22.7344 7.15039 22.8125C7.61914 27.8125 10.3535 32.1094 14.3379 34.7656C14.6504 34.2969 15.041 33.8281 15.2754 33.3594C15.7441 32.2656 16.0566 31.0156 15.8223 29.6094ZM39.5723 22.8125C39.0254 22.7344 38.4785 22.7344 37.9316 22.7344C36.6816 22.8906 35.3535 23.2812 34.2598 24.1406C33.7129 26.25 32.541 28.2031 30.9004 29.6094C30.666 31.0156 30.9785 32.2656 31.4473 33.2812C31.7598 33.8281 32.0723 34.2969 32.3848 34.7656C36.3691 32.1094 39.1035 27.8125 39.5723 22.8125Z" fill="#BA0033"/>
</svg>
