<svg width="50" height="40" viewBox="0 0 50 40" fill="none" xmlns="http://www.w3.org/2000/svg">
<path d="M9.96484 0.625H15.4336L16.2148 4.45312C17.2305 4.84375 18.2461 5.39062 19.1055 6.17188L22.4648 5L25.1992 9.6875L22.543 12.0312C22.6211 12.5781 22.6992 13.2031 22.6992 13.75C22.6992 14.375 22.6211 15 22.543 15.5469L25.1992 17.8906L22.4648 22.5L19.1055 21.4062C18.2461 22.1875 17.2305 22.7344 16.2148 23.125L15.4336 26.875H9.96484L9.18359 23.125C8.08984 22.7344 7.07422 22.1875 6.21484 21.4062L2.85547 22.5L0.199219 17.8906L2.77734 15.5469C2.69922 15 2.69922 14.375 2.69922 13.75C2.69922 13.2031 2.69922 12.5781 2.77734 12.0312L0.199219 9.6875L2.85547 5L6.21484 6.17188C7.07422 5.39062 8.08984 4.84375 9.18359 4.45312L9.96484 0.625ZM16.4492 13.75C16.4492 11.7188 14.7305 10 12.6992 10C10.5898 10 8.94922 11.7188 8.94922 13.75C8.94922 15.8594 10.5898 17.5 12.6992 17.5C14.7305 17.5 16.4492 15.8594 16.4492 13.75ZM49.5742 30.2344L45.8242 31.0156C45.4336 32.0312 44.8867 32.9688 44.1836 33.8281L45.3555 37.3438L40.5898 40L38.168 37.3438C37.6211 37.5 36.9961 37.5 36.4492 37.5C35.8242 37.5 35.1992 37.5 34.6523 37.3438L32.2305 40L27.4648 37.3438L28.6367 33.8281C28.0117 32.9688 27.3867 32.0312 27.0742 31.0156L23.3242 30.2344V24.8438L26.9961 24.0625C27.3867 23.0469 27.9336 22.0312 28.6367 21.25L27.4648 17.7344L32.2305 15L34.6523 17.6562C35.1992 17.5781 35.8242 17.5 36.3711 17.5C36.9961 17.5 37.6211 17.5781 38.168 17.6562L40.5898 15L45.3555 17.7344L44.1836 21.25C44.8867 22.1094 45.4336 23.0469 45.8242 24.0625L49.4961 24.8438V30.2344H49.5742ZM36.4492 31.25C38.4805 31.25 40.1992 29.6094 40.1992 27.5C40.1992 25.4688 38.4805 23.75 36.4492 23.75C34.3398 23.75 32.6992 25.4688 32.6992 27.5C32.6992 29.6094 34.3398 31.25 36.4492 31.25Z" fill="#BA0033"/>
</svg>
