<svg width="36" height="40" viewBox="0 0 36 40" fill="none" xmlns="http://www.w3.org/2000/svg">
<path d="M0.300781 21.6406C0.300781 11.25 14.0508 0 14.0508 0C14.0508 0 19.0508 4.6875 20.9258 7.03125C21.7852 5.85938 24.6758 3.67188 24.6758 3.67188C24.6758 3.67188 35.3008 12.5 35.3008 21.6406C35.3008 31.6406 27.4883 40 17.8008 40C7.95703 40 0.300781 31.6406 0.300781 21.6406ZM17.8789 32.5C19.9102 32.5 21.6289 31.9531 23.2695 30.8594C26.5508 28.5938 27.4102 23.9844 25.457 20.3906C25.2227 19.9219 25.0664 19.5312 24.6758 19.0625L20.7695 23.6719C20.7695 23.6719 14.3633 15.5469 13.9727 15C10.6914 19.0625 9.05078 21.4062 9.05078 23.9844C9.05078 29.375 12.957 32.5 17.8789 32.5Z" fill="#BA0033"/>
</svg>
