<svg width="205" height="56" viewBox="0 0 205 56" fill="none" xmlns="http://www.w3.org/2000/svg">
<g clip-path="url(#clip0_201_11221)">
<path d="M133.638 14.6377H139.728L140.937 17.4222H144.103L137.993 4.25051H135.512L129.403 17.4222H132.448L133.638 14.6377V14.6377ZM136.624 7.69996H136.745L138.74 12.3588H134.625L136.62 7.69996H136.624ZM120.812 36.5088V23.3372H117.927V36.5088H120.812ZM117.868 9.27107H117.888L124.584 17.4183H127.085V4.25051H124.18V12.4172H124.16L117.444 4.25051H114.963V17.4183H117.868V9.27107V9.27107ZM172.122 14.6377H178.212L179.422 17.4222H182.587L176.478 4.25051H173.997L167.887 17.4222H170.932L172.122 14.6377V14.6377ZM175.109 7.69996H175.229L177.224 12.3588H173.11L175.105 7.69996H175.109ZM168.474 36.5088H171.36V23.3372H168.474V36.5088V36.5088ZM102.18 14.6377H108.27L109.48 17.4222H112.645L106.536 4.25051H104.055L97.9455 17.4222H100.99L102.18 14.6377V14.6377ZM105.167 7.69996H105.288L107.283 12.3588H103.168L105.163 7.69996H105.167ZM187.818 9.27496H187.837L194.534 17.4222H197.034V4.25051H194.129V12.4172H194.11L187.394 4.25051H184.913V17.4183H187.818V9.27107V9.27496ZM165.573 4.2544H162.688V17.4183H165.573V4.25051V4.2544ZM142.337 36.5127L143.527 33.7283H149.617L150.827 36.5127H153.992L147.883 23.3411H145.402L139.292 36.5127H142.337V36.5127ZM146.51 26.7905H146.63L148.625 31.4494H144.511L146.506 26.7905H146.51ZM157.663 15.6877C158.892 14.4783 159.557 12.7438 159.557 10.8266C159.557 8.9094 158.931 7.31885 157.784 6.12885C156.613 4.93885 155.042 4.2544 152.619 4.2544H146.428V17.4183H152.619C155.1 17.4183 156.532 16.7533 157.659 15.6838L157.663 15.6877ZM149.314 14.9411V6.75107H152.522C154.074 6.75107 154.782 7.13218 155.447 7.80107C156.174 8.54774 156.555 9.59774 156.555 10.8461C156.555 12.1761 156.112 13.2261 155.345 13.9922C154.661 14.5988 154.035 14.9411 152.522 14.9411H149.314V14.9411ZM84.3305 23.3411V36.5127H94.9588V34.0316H87.216V23.3411H84.3305V23.3411ZM165.873 23.3411H153.448V25.8416H158.227V36.5088H161.113V25.8416H165.873V23.3411V23.3411ZM141.287 50.5983H141.268L134.552 42.4316H132.07V55.6033H134.975V47.4561H134.995L141.692 55.6033H144.192V42.4316H141.287V50.5983V50.5983ZM165.954 49.9722H170.815V47.4911H165.954V44.9283H174.043V42.4277H163.073V55.5994H174.51V53.1183H165.958V49.9722H165.954ZM154.015 47.4094C152.3 47.2694 150.566 47.1877 150.566 46.0172C150.566 44.8466 151.737 44.4033 153.047 44.4033C155.225 44.4033 156.878 45.2316 157.667 45.815L159.32 43.7966C158.192 43.0305 155.87 42.0233 153.129 42.0233C150.648 42.0233 147.684 43.0111 147.684 46.1961C147.684 49.5444 151.072 49.8672 153.957 50.05C155.933 50.2094 157.286 50.4933 157.286 51.765C157.286 53.0366 155.956 53.6394 154.28 53.6394C151.616 53.6394 149.742 52.3094 148.633 51.4227L147 53.3983C148.532 54.6466 150.83 56 154.241 56C157.469 56 160.172 54.7283 160.172 51.4811C160.172 47.8527 156.419 47.5688 154.019 47.4055L154.015 47.4094ZM201.573 23.3411V31.5077H201.553L194.837 23.3411H192.356V36.5127H195.261V28.3655H195.28L201.977 36.5127H204.478V23.3372H201.573V23.3411ZM181.829 22.9366C177.656 22.9366 174.385 26.0633 174.385 29.8938C174.385 33.7244 177.652 36.9133 181.829 36.9133C186.005 36.9133 189.35 33.8061 189.35 29.8938C189.35 25.9816 186.002 22.9366 181.829 22.9366V22.9366ZM181.829 34.4322C179.348 34.4322 177.411 32.375 177.411 29.8938C177.411 27.4127 179.348 25.4372 181.829 25.4372C184.31 25.4372 186.324 27.4555 186.324 29.8938C186.324 32.3322 184.349 34.4322 181.829 34.4322V34.4322ZM90.7238 53.5188C88.0016 53.5188 86.2477 51.5005 86.2477 49.0194C86.2477 46.5383 87.9627 44.5238 90.6227 44.5238C92.0344 44.5238 93.7299 45.1694 94.9394 46.2194L96.7555 44.3216C95.1805 42.9722 92.8005 42.0233 90.3816 42.0233C86.1271 42.0233 83.2221 45.2083 83.2221 49C83.2221 52.7916 86.1077 56 90.4827 56C93.3683 56 95.6666 54.7088 97.1794 53.2972L95.3438 51.4227C94.1927 52.5738 92.5205 53.5188 90.7238 53.5188V53.5188ZM180.293 42.4277H177.407V55.5994H188.035V53.1183H180.293V42.4277V42.4277ZM105.848 42.0233C101.675 42.0233 98.4044 45.15 98.4044 48.9805C98.4044 52.8111 101.671 56 105.848 56C110.024 56 113.369 52.8927 113.369 48.9805C113.369 45.0683 110.02 42.0233 105.848 42.0233ZM105.848 53.5188C103.367 53.5188 101.43 51.4616 101.43 48.9805C101.43 46.4994 103.367 44.5238 105.848 44.5238C108.329 44.5238 110.347 46.5422 110.347 48.9805C110.347 51.4188 108.372 53.5188 105.848 53.5188ZM137.371 28.9255H130.694V31.3055H134.668V33.5222C133.84 34.0861 132.51 34.4088 131.32 34.4088C128.376 34.4088 126.844 32.2311 126.844 29.9327C126.844 27.4711 128.598 25.4372 131.118 25.4372C132.49 25.4372 134.283 26.0438 135.434 27.09L137.352 25.2933C135.454 23.7611 133.175 22.9327 131.098 22.9327C127.023 22.9327 123.838 26.0594 123.838 29.9094C123.838 33.7594 126.984 36.89 131.199 36.89C133.257 36.89 135.656 36.1044 137.371 34.8327V28.9216V28.9255ZM90.7199 15.3416C87.9977 15.3416 86.2438 13.3233 86.2438 10.8422C86.2438 8.36107 87.9588 6.34662 90.6188 6.34662C92.0305 6.34662 93.726 6.99218 94.9355 8.04218L96.7516 6.1444C95.1766 4.79496 92.7966 3.84607 90.3777 3.84607C86.1233 3.84607 83.2183 7.03107 83.2183 10.8227C83.2183 14.6144 86.1038 17.8227 90.4788 17.8227C93.3644 17.8227 95.6627 16.5316 97.1755 15.12L95.3399 13.2455C94.1888 14.3966 92.5166 15.3416 90.7199 15.3416ZM100.298 23.3372H97.4127V36.5088H100.298V23.3372V23.3372ZM125.245 50.855C125.245 52.5894 123.915 53.5188 122.119 53.5188C120.423 53.5188 119.035 52.5894 119.035 50.855V42.4238H116.13V50.855C116.13 54.1411 118.732 55.9961 122.119 55.9961C125.506 55.9961 128.15 54.1411 128.15 50.855V42.4238H125.245V50.855V50.855ZM102.9 25.8377H107.679V36.505H110.565V25.8377H115.325V23.3372H102.9V25.8377V25.8377Z" fill="#132A3F"/>
<path d="M36.6412 0L22.1084 8.38833L22.1317 17.1811L36.6412 42.3072L51.1467 17.1811L51.1701 8.38833L36.6412 0Z" fill="#BB0034"/>
<path d="M22.1317 17.1811L14.5289 12.7633L0 21.1555V37.9322L22.1783 50.6605L36.6411 42.3072L22.1317 17.1811Z" fill="#BB0034"/>
<path d="M58.7494 12.7633L51.1467 17.1811L36.6411 42.3072L51.1039 50.6605L73.2822 37.9322V21.1555L58.7494 12.7633Z" fill="#BB0034"/>
<path opacity="0.5" d="M36.6412 42.3072V0L22.1084 8.38833L22.1317 17.1811L36.6412 42.3072Z" fill="#692832"/>
<path opacity="0.5" d="M36.6411 42.3072L0 21.1555V37.9322L22.1783 50.6605L36.6411 42.3072Z" fill="#692832"/>
<path opacity="0.5" d="M36.6411 42.3072L73.2822 21.1555V37.9322L51.1039 50.6605L36.6411 42.3072Z" fill="#692832"/>
<path d="M36.641 47.39L22.1782 55.7395H51.1038L36.641 47.39Z" fill="#BB0034"/>
<path opacity="0.5" d="M36.641 47.39L22.1782 55.7395H36.641V47.39Z" fill="#692832"/>
<path opacity="0.25" d="M36.6411 42.3072L22.1317 17.1811L14.5289 12.7633L0 21.1555L36.6411 42.3072Z" fill="#692832"/>
<path opacity="0.25" d="M36.6411 42.3072L51.1467 17.1811L58.7494 12.7633L73.2822 21.1555L36.6411 42.3072Z" fill="#692832"/>
</g>
<defs>
<clipPath id="clip0_201_11221">
<rect width="204.47" height="56" fill="white"/>
</clipPath>
</defs>
</svg>
