<svg width="745" height="567" viewBox="0 0 745 567" fill="none" xmlns="http://www.w3.org/2000/svg">
<path d="M372.031 0.807617L224.989 86.0415L225.225 175.385L372.031 430.692L518.797 175.385L519.034 86.0415L372.031 0.807617Z" fill="#BB0034"/>
<path d="M224.699 174.915L147.509 129.996L0 215.327V385.911L225.173 515.332L372.011 430.396L224.699 174.915Z" fill="#BB0034"/>
<path d="M596.474 129.996L519.284 174.915L372.011 430.396L518.849 515.332L744.022 385.911V215.327L596.474 129.996Z" fill="#BB0034"/>
<path opacity="0.5" d="M372.011 430.692V0.807617L224.989 86.0415L225.225 175.385L372.011 430.692Z" fill="#692832"/>
<path opacity="0.5" d="M372.011 430.516L0 215.75V386.094L225.173 515.332L372.011 430.516Z" fill="#692832"/>
<path opacity="0.5" d="M372.011 430.516L744.022 215.75V386.094L518.849 515.332L372.011 430.516Z" fill="#692832"/>
<path d="M372.011 481.921L224.989 566.562H519.034L372.011 481.921Z" fill="#BB0034"/>
<path opacity="0.5" d="M372.011 481.921L224.989 566.562H372.011V481.921Z" fill="#692832"/>
<path opacity="0.25" d="M372.011 430.692L224.699 174.96L147.509 129.996L0 215.411L372.011 430.692Z" fill="#692832"/>
<path opacity="0.25" d="M372.011 430.692L519.284 174.96L596.474 129.996L744.022 215.411L372.011 430.692Z" fill="#692832"/>
</svg>
