<svg width="205" height="56" viewBox="0 0 205 56" fill="none" xmlns="http://www.w3.org/2000/svg">
<g clip-path="url(#clip0_201_11180)">
<path d="M142.329 36.5088L143.519 33.7244H149.609L150.819 36.5088H153.984L147.875 23.3372H145.394L139.284 36.5088H142.329V36.5088ZM146.506 26.7866H146.627L148.622 31.4455H144.507L146.502 26.7866H146.506ZM181.821 22.9327C177.644 22.9327 174.378 26.0594 174.378 29.89C174.378 33.7205 177.644 36.9094 181.821 36.9094C185.998 36.9094 189.342 33.8022 189.342 29.89C189.342 25.9777 185.994 22.9327 181.821 22.9327ZM181.821 34.4283C179.34 34.4283 177.403 32.3711 177.403 29.89C177.403 27.4088 179.34 25.4333 181.821 25.4333C184.302 25.4333 186.317 27.4516 186.317 29.89C186.317 32.3283 184.341 34.4283 181.821 34.4283V34.4283ZM120.808 36.505V23.3372H117.923V36.5088H120.808V36.505ZM133.638 14.6338H139.728L140.937 17.4183H144.103L137.993 4.24662H135.512L129.403 17.4183H132.448L133.638 14.6338V14.6338ZM136.624 7.69607H136.745L138.74 12.355H134.625L136.62 7.69607H136.624ZM154.012 47.4055C152.297 47.2655 150.562 47.1838 150.562 46.0133C150.562 44.8427 151.733 44.3994 153.043 44.3994C155.221 44.3994 156.874 45.2277 157.663 45.8111L159.316 43.7927C158.188 43.0266 155.867 42.0194 153.125 42.0194C150.644 42.0194 147.68 43.0072 147.68 46.1961C147.68 49.5444 151.068 49.8672 153.953 50.05C155.929 50.2094 157.282 50.4933 157.282 51.765C157.282 53.0366 155.952 53.6394 154.276 53.6394C151.612 53.6394 149.738 52.3094 148.629 51.4227L146.996 53.3983C148.528 54.6466 150.827 56 154.237 56C157.465 56 160.168 54.7283 160.168 51.4811C160.168 47.8527 156.415 47.5688 154.016 47.4055H154.012ZM157.663 15.6838C158.892 14.4744 159.557 12.74 159.557 10.8227C159.557 8.90551 158.931 7.31496 157.784 6.12496C156.613 4.93496 155.042 4.25051 152.619 4.25051H146.428V17.4183H152.619C155.101 17.4183 156.532 16.7533 157.663 15.6838V15.6838ZM149.314 14.9372V6.75107H152.522C154.074 6.75107 154.782 7.13218 155.447 7.80107C156.174 8.54774 156.555 9.59774 156.555 10.8461C156.555 12.1761 156.112 13.2261 155.345 13.9922C154.661 14.5988 154.035 14.9411 152.522 14.9411H149.314V14.9372ZM180.293 42.4238H177.407V55.5955H188.035V53.1144H180.293V42.4238V42.4238ZM172.126 14.6338H178.216L179.425 17.4183H182.591L176.482 4.24662H174L167.891 17.4183H170.936L172.126 14.6338V14.6338ZM175.113 7.69607H175.233L177.228 12.355H173.114L175.109 7.69607H175.113ZM187.818 9.27107H187.837L194.534 17.4183H197.034V4.25051H194.129V12.4172H194.11L187.394 4.25051H184.913V17.4183H187.818V9.27107V9.27107ZM165.573 4.25051H162.688V17.4183H165.573V4.25051V4.25051ZM201.577 23.3411V31.5077H201.557L194.841 23.3411H192.36V36.5127H195.265V28.3655H195.284L201.981 36.5127H204.482V23.3372H201.577V23.3411ZM168.478 36.5127H171.364V23.3372H168.478V36.5088V36.5127ZM117.864 9.27107H117.884L124.581 17.4183H127.081V4.25051H124.176V12.4172H124.157L117.44 4.25051H114.959V17.4183H117.864V9.27107V9.27107ZM165.865 23.3372H153.44V25.8377H158.219V36.5088H161.105V25.8377H165.865V23.3372V23.3372ZM105.844 42.0233C101.667 42.0233 98.4005 45.15 98.4005 48.9805C98.4005 52.8111 101.667 56 105.844 56C110.021 56 113.365 52.8927 113.365 48.9805C113.365 45.0683 110.017 42.0233 105.844 42.0233ZM105.844 53.5188C103.363 53.5188 101.426 51.4616 101.426 48.9805C101.426 46.4994 103.363 44.5238 105.844 44.5238C108.325 44.5238 110.343 46.5422 110.343 48.9805C110.343 51.4188 108.368 53.5188 105.844 53.5188ZM125.245 50.855C125.245 52.5894 123.915 53.5188 122.119 53.5188C120.423 53.5188 119.035 52.5894 119.035 50.855V42.4238H116.13V50.855C116.13 54.1411 118.732 55.9961 122.119 55.9961C125.506 55.9961 128.15 54.1411 128.15 50.855V42.4238H125.245V50.855V50.855ZM102.9 25.8377H107.679V36.5088H110.565V25.8377H115.325V23.3372H102.9V25.8377V25.8377ZM141.283 50.5944H141.264L134.548 42.4277H132.067V55.5994H134.972V47.4522H134.991L141.688 55.5994H144.188V42.4277H141.283V50.5944V50.5944ZM137.371 28.9255H130.694V31.3055H134.668V33.5222C133.84 34.0861 132.51 34.4088 131.32 34.4088C128.376 34.4088 126.844 32.2311 126.844 29.9327C126.844 27.4711 128.598 25.4372 131.118 25.4372C132.49 25.4372 134.283 26.0438 135.434 27.09L137.352 25.2933C135.454 23.7611 133.175 22.9327 131.098 22.9327C127.023 22.9327 123.838 26.0594 123.838 29.9094C123.838 33.7594 126.984 36.89 131.199 36.89C133.257 36.89 135.656 36.1044 137.371 34.8327V28.9216V28.9255ZM100.302 23.3372H97.4166V36.5088H100.302V23.3372V23.3372ZM102.177 14.6338H108.267L109.476 17.4183H112.642L106.532 4.24662H104.051L97.9416 17.4183H100.987L102.177 14.6338V14.6338ZM105.163 7.69607H105.284L107.279 12.355H103.164L105.159 7.69607H105.163ZM165.954 49.9683H170.815V47.4872H165.954V44.9244H174.043V42.4238H163.073V55.5955H174.51V53.1144H165.958V49.9683H165.954ZM90.7238 53.5188C88.0016 53.5188 86.2477 51.5005 86.2477 49.0194C86.2477 46.5383 87.9627 44.5238 90.6227 44.5238C92.0344 44.5238 93.7299 45.1694 94.9394 46.2194L96.7555 44.3216C95.1805 42.9722 92.8005 42.0233 90.3816 42.0233C86.1272 42.0233 83.2222 45.2083 83.2222 49C83.2222 52.7916 86.1077 56 90.4827 56C93.3683 56 95.6666 54.7088 97.1794 53.2972L95.3438 51.4227C94.1927 52.5738 92.5205 53.5188 90.7238 53.5188V53.5188ZM90.7238 15.3416C88.0016 15.3416 86.2477 13.3233 86.2477 10.8422C86.2477 8.36107 87.9627 6.34662 90.6227 6.34662C92.0344 6.34662 93.7299 6.99218 94.9394 8.04218L96.7555 6.1444C95.1805 4.79496 92.8005 3.84607 90.3816 3.84607C86.1272 3.84607 83.2222 7.03107 83.2222 10.8227C83.2222 14.6144 86.1077 17.8227 90.4827 17.8227C93.3683 17.8227 95.6666 16.5316 97.1794 15.12L95.3438 13.2455C94.1927 14.3966 92.5205 15.3416 90.7238 15.3416V15.3416ZM84.3305 23.3372V36.5088H94.9588V34.0277H87.2161V23.3372H84.3305Z" fill="white"/>
<path d="M36.6411 0L22.1083 8.38833L22.1316 17.1811L36.6411 42.3111L51.1505 17.1811L51.1699 8.38833L36.6411 0Z" fill="#BB0034"/>
<path d="M22.1317 17.1811L14.5328 12.7633L0 21.1555V37.9322L22.1783 50.6605L36.6411 42.3111L22.1317 17.1811Z" fill="#BB0034"/>
<path d="M58.7494 12.7633L51.1506 17.1811L36.6411 42.3111L51.1039 50.6605L73.2822 37.9322V21.1555L58.7494 12.7633Z" fill="#BB0034"/>
<path opacity="0.5" d="M36.6411 42.3111V0L22.1083 8.38833L22.1316 17.1811L36.6411 42.3111Z" fill="#692832"/>
<path opacity="0.5" d="M36.6411 42.3111L0 21.1555V37.9322L22.1783 50.6605L36.6411 42.3111Z" fill="#692832"/>
<path opacity="0.5" d="M36.6411 42.3111L73.2822 21.1555V37.9322L51.1039 50.6605L36.6411 42.3111Z" fill="#692832"/>
<path d="M36.6411 47.39L22.1783 55.7395H51.1039L36.6411 47.39Z" fill="#BB0034"/>
<path opacity="0.5" d="M36.6411 47.39L22.1783 55.7395H36.6411V47.39Z" fill="#692832"/>
<path opacity="0.25" d="M36.6411 42.3111L22.1317 17.1811L14.5328 12.7633L0 21.1555L36.6411 42.3111Z" fill="#692832"/>
<path opacity="0.25" d="M36.6411 42.3111L51.1506 17.1811L58.7494 12.7633L73.2822 21.1555L36.6411 42.3111Z" fill="#692832"/>
</g>
<defs>
<clipPath id="clip0_201_11180">
<rect width="204.47" height="56" fill="white"/>
</clipPath>
</defs>
</svg>
