<svg width="458" height="441" viewBox="0 0 458 441" fill="none" xmlns="http://www.w3.org/2000/svg">
<path d="M245.668 312.076H242.406C242.406 312.076 241.183 313.495 243.427 314.101C243.427 314.101 244.65 315.316 246.689 315.115C246.689 315.115 248.933 312.076 245.671 312.076H245.668ZM151.666 245.643C151.666 245.643 149.627 244.023 148.607 244.224C148.607 244.224 146.363 246.249 147.383 247.463C147.383 247.463 148.404 249.083 150.443 248.073C150.443 248.073 152.687 246.453 151.666 245.643V245.643ZM202.235 269.744H198.36C198.36 269.744 195.914 270.353 197.545 271.568C197.545 271.568 199.381 272.783 201.622 272.378C201.622 272.378 203.458 269.948 202.235 269.744ZM453.855 288.581L454.058 284.732L453.04 284.531L453.242 279.671C452.629 277.037 447.942 279.467 447.942 279.467C446.719 280.481 443.659 279.872 443.659 279.872C439.174 279.668 434.484 284.936 434.484 284.936C432.24 287.366 428.776 285.746 428.776 285.746C426.737 284.732 425.309 291.82 425.309 291.82C424.901 294.454 421.026 294.049 421.026 294.049C415.928 291.619 412.053 295.468 412.053 295.468H407.569C403.899 295.669 402.676 291.619 402.676 291.619C402.063 289.39 400.84 288.38 400.84 288.38C397.78 284.33 394.519 288.581 394.519 288.581C391.257 291.415 389.218 287.566 389.218 287.566C386.772 283.718 379.228 282.707 379.228 282.707L376.984 283.112C376.168 284.123 375.147 282.707 375.147 282.707L373.314 282.911C371.683 284.735 371.276 282.707 371.276 282.707H366.585C364.749 281.087 363.118 282.503 363.118 282.503H357.612C351.291 281.693 346.601 276.224 346.601 276.224C345.583 274.199 341.095 270.35 341.095 270.35C334.98 266.705 333.959 261.842 333.959 261.842C333.346 259.412 330.084 254.957 330.084 254.957C328.861 253.337 328.655 248.478 328.655 248.478L301.942 142.142C299.29 131.609 298.475 132.419 298.475 132.419V142.343C297.862 144.368 296.639 144.977 296.639 144.977L290.523 144.776C285.017 143.561 281.755 139.307 281.755 139.307C280.94 137.282 279.104 134.852 279.104 134.852C270.744 125.535 265.646 125.13 265.646 125.13C262.384 124.521 257.489 116.622 257.489 116.622C255.858 113.988 249.536 109.533 249.536 109.533C246.682 107.508 242.602 102.444 242.602 102.444H239.95L240.156 89.0765C238.32 87.8615 236.486 80.5686 236.486 80.5686C235.469 75.9097 234.856 75.3038 234.856 75.3038C232.612 73.0748 228.332 61.1262 228.332 61.1262V55.4564L229.35 55.6604L229.148 51.6106C229.35 50.3956 230.168 49.5856 230.168 49.5856C231.392 45.7367 228.538 41.0778 228.538 41.0778L228.13 36.8239C226.499 33.989 223.237 38.2429 223.237 38.2429H215.898C215.898 37.4329 214.47 36.623 214.47 36.623H209.372V38.042H206.312C205.089 38.852 203.661 37.8411 203.661 37.8411L194.893 38.042C190.816 38.2461 191.426 39.6619 191.426 39.6619H178.376C177.763 40.4719 174.909 40.4719 174.909 40.4719L159.005 31.3582C157.782 30.5482 155.538 31.7631 155.538 31.7631H152.684L143.509 26.6993C142.693 26.6993 141.062 26.0902 141.062 26.0902C138.208 25.0762 137.393 26.0902 137.393 26.0902C135.149 26.6993 132.908 26.0902 132.908 26.0902C132.295 25.0762 129.033 25.0762 129.033 25.0762C129.239 22.6463 127.402 18.5933 127.402 18.5933C123.935 13.7334 118.635 10.6945 118.635 10.6945C116.189 10.0854 112.721 6.44056 112.721 6.44056C111.091 4.21157 103.546 1.98572 103.546 1.98572C90.7016 15.5543 49.5098 73.2789 49.5098 73.2789C38.0906 91.5095 2 126.75 2 126.75L2.40771 234.906C5.87487 234.906 8.93115 235.515 8.93115 235.515L9.13659 245.844C10.1575 254.552 15.2523 256.172 15.2523 256.172C16.8832 256.172 20.3503 257.591 20.3503 257.591H26.0583C27.6892 257.591 30.7486 259.82 30.7486 259.82C34.2158 259.616 35.2335 259.211 35.2335 259.211C35.8466 258.2 40.7392 256.781 40.7392 256.781L47.0604 257.186C48.8967 257.387 52.1584 260.021 52.1584 260.021H53.7892C53.9947 261.641 56.2355 262.655 56.2355 262.655C58.0718 264.074 58.4795 267.314 58.4795 267.314C60.1104 270.353 62.5567 266.504 62.5567 266.504C63.1667 264.68 66.4315 265.898 66.4315 265.898L70.101 270.353L72.955 270.557C73.3627 271.976 76.8299 272.987 76.8299 272.987L83.151 272.582L86.8204 268.733C88.0436 268.934 89.0645 267.518 89.0645 267.518C90.9007 265.088 95.3856 269.543 95.3856 269.543C98.6473 270.353 104.358 270.353 104.358 270.353C107.212 269.138 109.659 271.772 109.659 271.772C111.087 273.596 112.92 272.987 112.92 272.987C114.144 271.973 118.019 272.177 118.019 272.177C121.893 272.582 126.378 259.619 126.378 259.619C129.03 255.77 130.661 259.214 130.661 259.214C131.884 261.443 134.33 257.999 134.33 257.999C135.759 256.175 136.574 251.111 136.574 251.111C136.777 246.252 140.244 248.478 140.244 248.478C141.467 250.097 138.815 253.742 138.815 253.742C137.387 257.591 140.651 256.376 140.651 256.376C142.282 255.77 144.119 248.478 144.119 248.478V244.224C143.098 243.414 142.895 241.59 142.895 241.59H149.83L158.189 245.235C160.228 246.654 168.18 244.625 168.18 244.625L179.192 244.83C180.007 246.044 184.29 246.854 184.29 246.854L184.495 253.337L197.137 266.3L207.741 266.504C208.762 266.504 212.431 264.68 212.431 264.68C212.431 263.261 215.898 263.87 215.898 263.87L216.101 272.783L225.074 279.872V286.151C224.871 287.975 223.443 287.771 223.443 287.771L224.056 291.619C225.077 292.834 229.764 292.834 229.764 292.834V299.923C228.133 303.568 230.172 304.378 230.172 304.378L238.531 304.174C239.96 306.403 245.873 309.238 245.873 309.238L254.439 309.442C255.867 309.442 256.683 308.023 256.683 308.023C256.888 307.009 258.519 308.428 258.519 308.428H261.171C262.191 307.819 262.801 309.034 262.801 309.034H277.89C278.705 308.224 285.027 307.819 285.027 307.819L293.592 308.023C294.815 308.224 295.223 309.238 295.223 309.238H302.565C306.234 309.643 311.13 305.389 311.13 305.389C313.374 304.174 313.374 306.199 313.374 306.199C314.597 310.048 317.656 309.643 317.656 309.643L326.424 319.366C328.668 321.595 329.891 321.595 329.891 321.595C332.337 321.595 333.358 325.039 333.358 325.039L343.147 335.571C345.798 338.811 339.679 338.61 339.679 338.61C336.62 338.61 338.864 342.255 338.864 342.255C341.923 345.495 339.272 348.939 339.272 348.939H331.93L327.852 345.699L319.287 345.294C317.249 345.09 316.433 343.674 316.433 343.674L316.636 340.23C316.636 339.015 315.618 338.811 315.618 338.811H312.558C311.538 338.205 308.276 333.342 308.276 333.342C308.276 331.923 306.44 331.317 306.44 331.317L302.157 331.113C301.342 330.912 300.934 332.127 300.934 332.127C298.282 334.557 303.788 337.191 303.788 337.191C317.448 348.129 308.886 357.447 308.886 357.447C305.216 365.55 308.478 377.294 308.478 377.294C311.538 392.687 306.234 396.536 306.234 396.536C299.3 400.181 297.059 411.523 297.059 411.523C297.059 417.802 298.69 416.383 298.69 416.383C298.484 418.003 299.3 424.081 299.3 424.081C298.69 427.525 293.794 428.335 293.794 428.335C292.571 428.134 291.142 429.55 291.142 429.55C290.121 430.765 287.065 430.765 287.065 430.765C283.19 432.385 287.267 437.653 287.267 437.653C288.898 437.653 290.121 439.072 290.121 439.072H295.627C296.85 439.072 297.464 437.047 297.464 437.047H302.969C303.785 436.846 303.582 435.427 303.582 435.427C303.377 433.198 305.621 432.592 305.621 432.592C307.457 432.592 309.904 428.944 309.904 428.944C310.109 427.324 313.981 425.095 313.981 425.095C316.225 424.891 318.671 419.221 318.671 419.221C318.671 418.411 324.177 411.118 324.177 411.118H325.808C325.808 410.308 329.275 410.104 329.275 410.104L332.334 409.904C332.54 408.689 333.355 408.484 333.355 408.484H348.649L351.095 407.879C354.765 406.259 348.649 404.234 348.649 404.234C345.59 403.22 351.911 399.575 351.911 399.575C353.949 399.17 369.651 392.486 369.651 392.486C370.467 391.877 372.097 392.081 372.097 392.081C374.951 392.285 377.603 390.866 377.603 390.866C381.273 388.232 375.565 384.992 375.565 384.992C373.526 383.168 374.341 382.157 374.341 382.157C374.341 380.132 373.728 379.523 373.728 379.523C372.505 377.093 366.184 382.763 366.184 382.763C361.086 385.802 355.988 382.559 355.988 382.559C352.113 381.545 356.803 377.9 356.803 377.9C358.842 376.481 361.086 370.811 361.086 370.811C361.696 369.392 362.922 367.977 362.922 367.977C365.166 366.558 370.261 360.483 370.261 360.483C371.892 358.053 374.544 358.863 374.544 358.863L382.903 354.609C388.204 353.193 395.748 348.33 395.748 348.33C397.379 347.721 399.01 349.749 399.01 349.749L403.902 349.545C404.108 348.531 406.349 348.936 406.349 348.936C409.61 349.341 411.039 346.911 411.039 346.911C411.039 345.9 412.67 345.291 412.67 345.291C414.914 343.062 410.833 342.051 410.833 342.051C408.387 342.66 406.349 341.037 406.349 341.037C405.328 340.023 408.387 338.607 408.387 338.607H412.262C413.485 338.607 413.485 336.987 413.485 336.987C413.485 335.163 416.339 334.758 416.339 334.758C418.378 334.962 421.639 330.909 421.639 330.909C422.863 328.884 426.94 329.289 426.94 329.289L433.261 322.402C433.059 319.567 435.707 316.732 435.707 316.732C439.784 314.302 440.6 309.238 440.6 309.238C441.213 304.783 445.492 301.945 445.492 301.945C446.918 301.54 448.346 298.501 448.346 298.501C449.162 297.082 451.813 297.487 451.813 297.487C455.075 297.487 456.706 292.627 456.706 292.627C458.135 289.387 453.852 288.577 453.852 288.577L453.855 288.581ZM295.216 324.229C295.216 324.229 298.07 320.989 297.46 316.735C297.46 316.735 297.255 311.47 295.422 313.9C295.422 313.9 293.178 317.95 291.955 315.115C291.955 315.115 290.324 310.66 287.877 314.305C287.877 314.305 287.062 315.925 284.818 315.52L279.925 314.71L276.664 317.749L272.994 317.953C272.994 317.953 270.75 316.534 268.712 317.143C268.712 317.143 263.411 317.143 264.635 319.573C264.635 319.573 266.063 321.598 273.607 321.193C273.607 321.193 282.988 321.802 285.637 323.218C285.637 323.218 291.752 326.863 295.219 324.232L295.216 324.229ZM257.903 318.154C257.903 318.154 255.659 320.383 258.108 320.989C258.108 320.989 261.575 322.204 260.76 319.369C260.76 319.369 259.944 317.95 257.906 318.154H257.903Z" stroke="#BA0033" stroke-width="2"/>
</svg>
