<svg width="40" height="36" viewBox="0 0 40 36" fill="none" xmlns="http://www.w3.org/2000/svg">
<path d="M9.375 0.5H7.57812L6.95312 2.21875L3.20312 13H0V29.25V35.5H7.5V29.25H32.5V35.5H40V29.25V13H36.7188L32.9688 2.21875L32.3438 0.5H30.625H9.375ZM31.4062 13H8.51562L11.0938 5.5H28.8281L31.4062 13ZM10 20.5C10 21.9062 8.82812 23 7.5 23C6.09375 23 5 21.9062 5 20.5C5 19.1719 6.09375 18 7.5 18C8.82812 18 10 19.1719 10 20.5ZM32.5 23C31.0938 23 30 21.9062 30 20.5C30 19.1719 31.0938 18 32.5 18C33.8281 18 35 19.1719 35 20.5C35 21.9062 33.8281 23 32.5 23Z" fill="#BA0033"/>
</svg>
