<svg width="20" height="19" viewBox="0 0 20 19" fill="none" xmlns="http://www.w3.org/2000/svg">
<path d="M9.17188 2.3595L5.97266 0.250122L5.375 0.882935C0.839844 5.4884 0.839844 13.0118 5.375 17.6525L5.97266 18.2501L9.17188 16.1759L8.01172 11.9572L5.26953 12.2736C4.67188 10.3048 4.67188 8.19543 5.26953 6.26184L8.01172 6.57825L9.17188 2.3595ZM18.3125 9.25012C18.3125 12.3439 16.625 15.0509 14.1641 16.5275L15.043 17.9689C17.9961 16.2111 20 12.9767 20 9.25012C20 5.55872 17.9961 2.32434 15.043 0.566528L14.1641 2.00793C16.625 3.4845 18.3125 6.19153 18.3125 9.25012ZM12.4414 13.6095L13.3203 15.0861C15.2891 13.8907 16.625 11.7462 16.625 9.25012C16.625 6.78918 15.2891 4.64465 13.3203 3.44934L12.4414 4.9259C13.918 5.80481 14.9375 7.422 14.9375 9.25012C14.9375 11.1134 13.918 12.7306 12.4414 13.6095ZM11.5625 9.25012C11.5625 9.88293 11.2109 10.4103 10.7188 10.7267L11.5977 12.1681C12.582 11.5704 13.25 10.5157 13.25 9.25012C13.25 8.01965 12.582 6.96497 11.5977 6.36731L10.7188 7.80872C11.2109 8.12512 11.5625 8.65247 11.5625 9.25012Z" fill="#BA0033"/>
</svg>
