<svg width="24" height="30" viewBox="0 0 24 30" fill="none" xmlns="http://www.w3.org/2000/svg">
<path d="M1.5 1.4375C2.4375 0.875 3.625 0.875 4.5625 1.5L22.5625 12.4375C23.4375 13 24 14 24 15C24 16.0625 23.4375 17.0625 22.5625 17.5625L4.5625 28.5625C3.625 29.125 2.4375 29.1875 1.5 28.625C0.5625 28.125 0 27.125 0 26V4C0 2.9375 0.5625 1.9375 1.5 1.4375ZM3.5 3.1875C3.1875 3 2.8125 3 2.5 3.1875C2.1875 3.3125 2 3.6875 2 4V26C2 26.375 2.1875 26.75 2.5 26.875C2.8125 27.0625 3.1875 27.0625 3.5 26.875L21.5 15.875C21.8125 15.6875 22 15.375 22 15C22 14.6875 21.8125 14.375 21.5 14.1875L3.5 3.1875Z" fill="white"/>
</svg>
