<svg width="50" height="41" viewBox="0 0 50 41" fill="none" xmlns="http://www.w3.org/2000/svg">
<path d="M30 2.80859H40H42.5V7.80859H40H31.0938C30.7031 9.83984 29.2969 11.5586 27.5 12.3398V35.3086H40H42.5V40.3086H40H25H10H7.5V35.3086H10H22.5V12.3398C20.625 11.4805 19.2188 9.83984 18.8281 7.80859H10H7.5V2.80859H10H20C21.0938 1.32422 22.8906 0.308594 25 0.308594C27.0312 0.308594 28.8281 1.32422 30 2.80859ZM8.75 10.3086H11.25H12.3438L12.8906 11.3242L19.7656 24.4492L19.9219 24.918V25.3086V27.8086V28.5898L19.375 29.1367L16.25 32.2617L15.7031 32.8086H15H5H4.21875L3.67188 32.2617L0.546875 29.1367L0 28.5898V27.8086V25.3086V24.918L0.15625 24.4492L7.03125 11.3242L7.57812 10.3086H8.75ZM3.98438 25.3086H15.9375L10.0781 14.0586H9.84375L3.98438 25.3086ZM37.5781 10.3086H38.75H41.25H42.3438L42.8906 11.3242L49.7656 24.4492L49.9219 24.918V25.3086V27.8086V28.5898L49.375 29.1367L46.25 32.2617L45.7031 32.8086H45H35H34.2188L33.6719 32.2617L30.5469 29.1367L30 28.5898V27.8086V25.3086V24.918L30.1562 24.4492L37.0312 11.3242L37.5781 10.3086ZM39.8438 14.0586L33.9844 25.3086H45.9375L40.0781 14.0586H39.8438Z" fill="#BA0033"/>
</svg>
