<svg width="131" height="184" viewBox="0 0 131 184" fill="none" xmlns="http://www.w3.org/2000/svg">
<g clip-path="url(#clip0_203_12335)">
<path opacity="0.5" d="M4.68129 51.3112C4.58364 51.0342 4.61269 50.7283 4.76074 50.4746L9.59221 42.1966C9.77145 41.8895 10.1003 41.7007 10.4559 41.7007H12.7012C13.2535 41.7007 13.7012 42.1484 13.7012 42.7007V48.9966C13.7012 49.4341 13.9857 49.8209 14.4034 49.9512L19.5689 51.5627C19.7353 51.6146 19.8853 51.7091 20.0039 51.8369L24.2461 56.4066C24.5657 56.7509 25.0819 56.8263 25.4867 56.5878L30.8836 53.4076C31.141 53.2559 31.4528 53.2273 31.7336 53.3296L35.1339 54.5686C35.3706 54.6549 35.6312 54.6486 35.8634 54.5511L66.2825 41.7787C66.4051 41.7272 66.5367 41.7007 66.6696 41.7007H67.7247C68.5101 41.7007 68.989 42.5647 68.5726 43.2307L62.0475 53.6695C61.9393 53.8426 61.8866 54.0446 61.8966 54.2485L62.2386 61.2283C62.2551 61.5641 62.1016 61.8858 61.8303 62.0843L57.5581 65.2098C57.3867 65.3351 57.1799 65.4027 56.9676 65.4027H49.2517C49.0114 65.4027 48.7792 65.3161 48.5975 65.1589L45.2065 62.2253C44.8881 61.9498 44.4312 61.9033 44.0638 62.1089L38.5435 65.1988C38.3104 65.3293 38.0349 65.3611 37.7782 65.2871L26.0116 61.8962C25.7261 61.8139 25.4187 61.8628 25.1729 62.0298L20.9665 64.8865C20.5368 65.1784 19.9552 65.0926 19.628 64.6891L14.0013 57.7501C13.8115 57.5159 13.5261 57.3799 13.2246 57.3799H7.52858C7.10447 57.3799 6.72649 57.1124 6.58547 56.7124L4.68129 51.3112Z" stroke="#BA0033" stroke-width="2"/>
<path opacity="0.5" d="M27.6732 105.028C27.8545 105.028 28.0324 104.979 28.1878 104.886L37.5252 99.2814L44.5342 95.7795C45.5129 95.2906 46.4534 96.5027 45.7366 97.3293L39.3502 104.693C39.1654 104.907 39.0792 105.188 39.1128 105.468L40.0485 113.258C40.1291 113.929 39.5351 114.485 38.8711 114.36L34.4063 113.522C34.1949 113.482 34.0019 113.375 33.856 113.217L30.1592 109.212C29.7862 108.808 29.1569 108.781 28.7506 109.151L20.7401 116.456C20.6926 116.5 20.6495 116.548 20.6112 116.599L0.939928 143.08C0.811839 143.252 0.742676 143.461 0.742676 143.676V173.186C0.742676 173.465 0.858476 173.73 1.06227 173.919L5.58088 178.115C5.89468 178.406 6.35915 178.465 6.73603 178.262L10.4925 176.236C10.8507 176.042 11.2903 176.086 11.6041 176.345L19.4181 182.798C19.7137 183.043 20.1227 183.096 20.4712 182.937L28.7514 179.146C28.9766 179.043 29.1556 178.86 29.2536 178.632L39.8274 154.08L45.5064 136.285C45.551 136.145 45.5643 135.997 45.5453 135.852L44.5558 128.273C44.483 127.716 44.8836 127.208 45.4426 127.149L51.579 126.502C51.6624 126.493 51.7465 126.495 51.8295 126.507L63.5871 128.239C64.1909 128.328 64.7328 127.86 64.7328 127.249V119.23C64.7328 118.969 64.8343 118.719 65.0158 118.533L91.5567 91.2325L109.615 75.0578C109.827 74.8681 109.948 74.5972 109.948 74.3129V67.9451C109.948 67.2017 109.166 66.7182 108.501 67.0507L102.971 69.8154C102.306 70.1478 101.524 69.6643 101.524 68.921V66.8624C101.524 66.528 101.691 66.2157 101.97 66.0302L108.135 61.9223C108.321 61.7986 108.46 61.6164 108.53 61.4047L109.721 57.8124C109.856 57.4033 110.239 57.127 110.67 57.127H116.091C116.33 57.127 116.562 57.0411 116.743 56.8849L129.868 45.5855C130.113 45.3749 130.24 45.0591 130.211 44.7375L128.793 29.0722C128.756 28.6627 128.472 28.3176 128.077 28.2024L119.746 25.7701C119.605 25.7289 119.456 25.7193 119.311 25.742L108.425 27.4453C107.819 27.5403 107.271 27.0713 107.271 26.4574V9.74132C107.271 9.42286 107.119 9.12344 106.862 8.93506L96.3609 1.23028C96.0127 0.974791 95.5398 0.971733 95.1883 1.22269L88.1728 6.23158C87.8959 6.42932 87.7385 6.75433 87.7551 7.09422L89.2581 37.8637C89.2615 37.9333 89.2577 38.0031 89.2466 38.0718L87.4139 49.4262C87.3698 49.6993 87.4408 49.9784 87.61 50.1973L93.5032 57.8182C93.7231 58.1025 93.7734 58.483 93.6351 58.8148L90.3896 66.5964C90.1839 67.0898 89.6266 67.3341 89.1243 67.1511L86.0181 66.0192C85.881 65.9692 85.7565 65.8899 85.6534 65.7867L81.4043 61.5377C80.9286 61.0619 80.1282 61.1823 79.8134 61.7769L73.8308 73.0765C73.6575 73.4038 73.3175 73.6086 72.9471 73.6086H58.0402C57.9048 73.6086 57.7708 73.6361 57.6464 73.6894L49.9383 76.9916C49.8432 77.0324 49.7424 77.0581 49.6394 77.0679L33.9078 78.5678C33.7688 78.5811 33.6286 78.565 33.4961 78.5208L29.7853 77.2815C29.3769 77.1451 28.927 77.2855 28.6686 77.6299L18.9504 90.582C18.8205 90.7552 18.7503 90.9658 18.7503 91.1822V104.028C18.7503 104.58 19.198 105.028 19.7503 105.028H27.6732Z" stroke="#BA0033" stroke-width="2"/>
</g>
<defs>
<clipPath id="clip0_203_12335">
<rect width="129.934" height="184" fill="white" transform="translate(0.533203 -0.00012207)"/>
</clipPath>
</defs>
</svg>
