<svg width="158" height="186" viewBox="0 0 158 186" fill="none" xmlns="http://www.w3.org/2000/svg">
<path opacity="0.5" d="M100.517 144.389C100.52 144.388 100.52 144.385 100.519 144.383L99.3017 141.853C99.057 141.345 99.2811 140.735 99.7966 140.506L102.033 139.511C102.218 139.429 102.424 139.405 102.623 139.442L105.969 140.069C106.256 140.122 106.552 140.048 106.78 139.865L112.12 135.568C112.251 135.463 112.406 135.393 112.57 135.363L114.094 135.089C114.602 134.998 114.891 134.453 114.681 133.981V133.981C114.455 133.475 114.804 132.898 115.357 132.863L118.896 132.637C119.194 132.618 119.468 132.466 119.643 132.223L122.765 127.891L125.063 125.135C125.33 124.815 125.371 124.363 125.165 124.001L123.414 120.917C123.28 120.68 123.055 120.509 122.791 120.442L117.52 119.1C117.296 119.043 117.06 119.066 116.851 119.163L107.484 123.535C107.367 123.59 107.262 123.666 107.174 123.761L95.8751 135.919C95.8226 135.976 95.7768 136.038 95.7386 136.105L91.3642 143.786C91.3218 143.86 91.2892 143.94 91.2671 144.022L89.2172 151.682L87.8769 154.982C87.8215 155.119 87.7365 155.241 87.6281 155.341L86.806 156.099C86.0061 156.836 84.7969 155.866 85.3425 154.925V154.925C85.3676 154.882 85.3892 154.837 85.4072 154.79L88.0852 147.831C88.1097 147.767 88.1276 147.701 88.1387 147.634L89.5272 139.194C89.54 139.115 89.5622 139.039 89.5932 138.966L93.7209 129.229C93.7876 129.072 93.8936 128.934 94.0287 128.829L99.9539 124.234C100.103 124.118 100.216 123.963 100.281 123.786L101.024 121.743C101.048 121.677 101.065 121.609 101.075 121.54L101.791 116.43C101.816 116.255 101.886 116.09 101.995 115.951L105.284 111.764C105.39 111.629 105.53 111.523 105.689 111.458L123.533 104.103L133.963 100.844C134.025 100.825 134.085 100.799 134.142 100.768L143.823 95.508C144.03 95.3956 144.19 95.214 144.276 94.9949L147.705 86.2665C147.742 86.1731 147.764 86.0748 147.772 85.9748L148.165 80.6785C148.187 80.3791 148.342 80.1056 148.588 79.9334L151.389 77.9723C151.454 77.9261 151.515 77.8721 151.568 77.8116L154.258 74.7366C154.447 74.5196 154.722 74.395 155.01 74.395H156.742C156.746 74.395 156.75 74.3924 156.752 74.3883V74.3883C156.753 74.3847 156.753 74.3807 156.751 74.3777L153.191 69.7713C152.893 69.3856 152.361 69.271 151.93 69.4999L128.186 82.1315L119.786 86.6777C119.601 86.7778 119.39 86.817 119.181 86.7898L112.582 85.9287C112.394 85.9042 112.217 85.8267 112.071 85.7052L109.688 83.7184C109.478 83.5436 109.183 83.5145 108.943 83.645V83.645C108.619 83.8215 108.5 84.2282 108.678 84.5515L110.2 87.3117C110.254 87.4085 110.291 87.5135 110.31 87.6224L110.882 90.8946C110.899 90.9913 110.901 91.09 110.889 91.1875L110.65 93.1519C110.562 93.8787 109.748 94.2673 109.127 93.879L109.111 93.869C109.056 93.8345 109.005 93.7948 108.957 93.7503L105.35 90.3648C104.955 89.9938 104.336 90.0053 103.955 90.3905L100.865 93.5129C100.576 93.8049 100.138 93.8905 99.7608 93.7287L98.775 93.3064C98.599 93.231 98.4051 93.2078 98.2162 93.2393L97.114 93.4237C96.6677 93.4983 96.2269 93.264 96.0391 92.8523L94.0974 88.5943C94.0526 88.496 94.024 88.391 94.0127 88.2836L93.7817 86.0796C93.7459 85.7383 93.4273 85.4996 93.0897 85.5611V85.5611C92.8693 85.6013 92.6908 85.7628 92.6288 85.9781L92.3237 87.0382C92.0994 87.8178 91.089 88.0199 90.582 87.3865L90.0546 86.7276C90.017 86.6807 89.9838 86.6304 89.9552 86.5775L88.1619 83.2541L87.0939 81.7573C86.9203 81.514 86.647 81.3611 86.3489 81.3405L84.7128 81.2273C84.4037 81.2059 84.1219 81.0425 83.9499 80.7847L82.3007 78.313C82.2681 78.2641 82.2399 78.2125 82.2163 78.1587L80.318 73.8176C80.1602 73.457 80.2288 73.0373 80.4931 72.7456L81.2148 71.9489C81.308 71.8461 81.3787 71.725 81.4225 71.5933L81.831 70.3662C81.9267 70.0789 81.887 69.7638 81.7232 69.5092L81.5961 69.3117C81.067 68.4895 81.9107 67.4748 82.8157 67.845L83.1074 67.9644C83.5267 68.1359 84.009 68.0041 84.2828 67.6431L84.4406 67.435C84.7298 67.0537 84.7083 66.5208 84.3892 66.1641L83.5863 65.2664C83.4751 65.1421 83.3967 64.9919 83.3584 64.8295L83.1332 63.8757C82.9827 63.238 83.4759 62.6302 84.1309 62.6462L84.3787 62.6523C84.57 62.657 84.756 62.7164 84.9145 62.8237L88.7753 65.4352C88.987 65.5784 89.2455 65.6351 89.4977 65.5937L94.8363 64.7169C95.0122 64.688 95.1772 64.6126 95.3142 64.4985L97.4463 62.7228C97.6661 62.5397 97.9534 62.4596 98.2364 62.5014C98.7091 62.5714 99.4279 62.6753 99.7179 62.7043C99.9922 62.7318 101.034 62.6084 101.802 62.5082C102.3 62.4434 102.667 62.0144 102.661 61.5122L102.631 59.1034C102.628 58.9102 102.57 58.7219 102.463 58.5612L101.147 56.5876C101.005 56.3742 100.95 56.1144 100.994 55.8618L101.365 53.7263C101.425 53.3792 101.298 53.0261 101.031 52.7966L97.8704 50.0816C97.731 49.9618 97.6272 49.806 97.5706 49.6311L97.3449 48.9339C97.2113 48.5213 96.8271 48.2419 96.3935 48.2419H95.757C95.384 48.2419 95.0419 48.0343 94.8698 47.7033L93.5018 45.0728C93.437 44.9482 93.3468 44.8388 93.2369 44.7514L92.1904 43.9193C91.992 43.7616 91.8609 43.5345 91.8236 43.2839L91.4351 40.6751L90.9097 36.7284C90.9024 36.6736 90.8906 36.6194 90.8743 36.5666L89.8054 33.0893C89.7062 32.7665 89.4508 32.5157 89.1263 32.4222L87.3205 31.9021C87.1151 31.843 86.9341 31.7196 86.804 31.5501L86.2272 30.7987C86.0651 30.5876 85.8255 30.4498 85.5615 30.4158L84.8574 30.3253C84.473 30.2759 84.1518 30.0088 84.033 29.6399L83.8851 29.1805C83.8176 28.9709 83.8212 28.7448 83.8954 28.5374L84.9012 25.7237L85.7276 24.0066C85.905 23.6379 85.8399 23.1983 85.5633 22.8968L84.56 21.8033C84.2583 21.4746 83.7754 21.3854 83.3763 21.5848L81.709 22.4176C81.5994 22.4724 81.4807 22.5065 81.3587 22.5183L79.3386 22.7144C78.9915 22.748 78.6577 22.5717 78.49 22.266V22.266C78.355 22.02 78.3466 21.7241 78.4674 21.471L79.0789 20.1897C79.1678 20.0033 79.1969 19.7941 79.1621 19.5906L78.6625 16.6657C78.6445 16.5602 78.5839 16.4667 78.4949 16.4071V16.4071C78.2898 16.2697 78.0102 16.3549 77.9165 16.5833L77.8491 16.7476C77.7574 16.9713 77.5271 17.1057 77.2872 17.0757L77.0137 17.0414C76.7621 17.0099 76.5356 16.8731 76.3905 16.6652L75.6697 15.632C75.6156 15.5543 75.5727 15.4694 75.5424 15.3798L72.7581 7.13529C72.6881 6.92798 72.4968 6.78592 72.2781 6.77888V6.77888C71.9457 6.76819 71.6874 7.06556 71.7445 7.39317L72.7362 13.0824C72.8131 13.5236 72.5872 13.9622 72.1833 14.1558L71.976 14.2552C71.386 14.538 71.222 15.3017 71.6439 15.8018L72.8691 17.2542C72.9753 17.3801 73.0488 17.5302 73.083 17.6913L73.5583 19.9302C73.5905 20.0815 73.5871 20.2382 73.5484 20.388L73.0991 22.127C73.0179 22.4414 73.2217 22.7583 73.5415 22.8148V22.8148C73.9279 22.8831 74.1244 23.319 73.9197 23.6538L72.6986 25.6513C72.5933 25.8236 72.5426 26.0238 72.5532 26.2255L72.5563 26.2839C72.5888 26.8996 72.0472 27.3895 71.4379 27.2956V27.2956C70.9089 27.2141 70.4136 27.5757 70.33 28.1043L70.0218 30.0528C69.999 30.197 69.9449 30.3345 69.8633 30.4556L67.5687 33.8593C67.4825 33.9872 67.4286 34.1339 67.4116 34.2871V34.2871C67.3115 35.1859 66.1338 35.4541 65.6544 34.6873L65.0964 33.7949C65.0672 33.7481 65.0341 33.7038 64.9975 33.6625L63.387 31.8416C63.2407 31.6762 63.0438 31.5639 62.827 31.5222L61.5772 31.2815C61.2334 31.2153 60.9493 30.9742 60.8281 30.6458L60.7706 30.49C60.5885 29.9964 60.0551 29.7284 59.5503 29.8768L55.8738 30.958C55.3217 31.1203 54.7469 30.7844 54.6173 30.2238L54.1745 28.3078C54.1357 28.1401 54.1441 27.965 54.1986 27.8017V27.8017C54.4005 27.1969 53.9504 26.572 53.3127 26.572H52.8125C52.2602 26.572 51.8125 26.1242 51.8125 25.572V23.9425C51.8125 23.7803 51.773 23.6204 51.6974 23.4768L49.3451 19.0077L47.5521 15.1223C47.4369 14.8729 47.4295 14.5871 47.5315 14.332L48.5789 11.7128C48.7409 11.3074 48.6214 10.8438 48.2835 10.5674L47.8962 10.2507C47.4388 9.87657 46.7585 9.97854 46.4309 10.4703L45.9764 11.1525C45.9207 11.2362 45.8526 11.311 45.7746 11.3744L45.2031 11.8385C44.838 12.135 44.3155 12.137 43.9482 11.8433L43.6806 11.6293C43.4664 11.4581 43.1913 11.3823 42.9196 11.4197L36.9253 12.2456C36.4898 12.3056 36.0663 12.0742 35.8815 11.6753L34.8583 9.46711C34.7163 9.16073 34.7385 8.80339 34.9174 8.51698L35.1183 8.19536C35.4827 7.61188 35.1628 6.84325 34.492 6.69059L34.389 6.66716C34.1722 6.6178 33.9442 6.64254 33.7427 6.73675V6.73675C33.2376 6.97296 32.6344 6.75152 32.4051 6.24321L31.8367 4.98304C31.7309 4.74849 31.5388 4.56374 31.3002 4.46723L28.219 3.22051L24.0277 1.30458C23.6311 1.12331 23.1629 1.21987 22.8704 1.5432L20.4547 4.21356C20.3139 4.36919 20.1277 4.47659 19.9225 4.52053L14.5861 5.66322C14.5173 5.67795 14.4471 5.68538 14.3767 5.68538H12.4062C12.3107 5.68538 12.2157 5.6717 12.1241 5.64476L6.97996 4.13206C6.77928 4.07304 6.56514 4.07845 6.36768 4.14751L3.77823 5.05323C3.52548 5.14163 3.31874 5.32771 3.20431 5.5698L1.49605 9.18366C1.34113 9.5114 1.37571 9.89731 1.58642 10.1923L4.76327 14.6394C4.88155 14.805 4.94651 15.0027 4.94946 15.2062L5.02561 20.4536C5.0267 20.5289 5.01928 20.6041 5.00347 20.6778L4.76525 21.7883C4.64109 22.3671 5.04411 22.9265 5.63245 22.9919L6.16138 23.0508C6.5263 23.0914 6.83962 23.3287 6.97757 23.6689L10.3193 31.9117C10.4061 32.1257 10.4161 32.3632 10.3477 32.5837L7.49463 41.7803L6.42033 44.2182C6.31867 44.4489 6.30789 44.7094 6.39015 44.9477L6.95943 46.5969C7.04054 46.8319 7.20626 47.0282 7.42429 47.1477L16.2899 52.0039C16.4539 52.0937 16.5894 52.2277 16.6811 52.3907L21.6442 61.2148C21.6945 61.3042 21.7307 61.4008 21.7516 61.5012L22.8552 66.8023C22.9167 67.098 23.1086 67.35 23.3773 67.488L25.2185 68.4336C25.6628 68.6617 25.8706 69.1826 25.7054 69.6539L25.6519 69.8065C25.5114 70.2073 25.133 70.4757 24.7082 70.4757H23.2952C22.8487 70.4757 22.4563 70.7717 22.3337 71.201L20.9557 76.025C20.9168 76.1609 20.8496 76.2871 20.7585 76.3951L13.0614 85.5199C12.9688 85.6297 12.8536 85.7183 12.7236 85.7796L8.97483 87.5478C8.71286 87.6713 8.51733 87.9024 8.43884 88.1812L7.92199 90.0172C7.85712 90.2476 7.87707 90.4937 7.97821 90.7106L8.88242 92.6505C8.9412 92.7766 9.02564 92.889 9.13034 92.9806L11.4896 95.0447C11.5651 95.1108 11.6303 95.1879 11.6829 95.2735L12.7702 97.0415C12.8671 97.1991 12.9184 97.3804 12.9184 97.5653V100.639C12.9184 100.757 12.9393 100.874 12.9803 100.985L15.4315 107.624C15.4558 107.69 15.487 107.753 15.5245 107.813L17.9579 111.658C17.9977 111.721 18.0303 111.788 18.0552 111.858L18.7852 113.913C18.8737 114.162 18.86 114.436 18.747 114.675L16.9819 118.409C16.8571 118.673 16.8539 118.979 16.9731 119.245L18.0977 121.759C18.1533 121.884 18.1779 122.02 18.1692 122.156V122.156C18.1123 123.046 16.8896 123.245 16.553 122.419L16.3517 121.925C16.2139 121.586 15.8962 121.355 15.5317 121.328L14.6781 121.265C14.2237 121.231 13.8039 121.509 13.6573 121.94L13.4628 122.513C13.41 122.668 13.3963 122.834 13.4228 122.996L19.4722 159.905L19.7191 165.448C19.7257 165.597 19.766 165.744 19.837 165.876L22.502 170.841C22.5345 170.901 22.5731 170.958 22.6172 171.011L25.1736 174.055C25.2196 174.11 25.2595 174.17 25.2928 174.233L26.2686 176.088C26.4283 176.391 26.7323 176.592 27.0742 176.619L37.5499 177.453C37.7199 177.466 37.8836 177.523 38.0254 177.618L42.3438 180.498C42.3975 180.534 42.4545 180.564 42.5141 180.589L48.3805 183.034C48.5115 183.088 48.6526 183.114 48.7944 183.11L52.6456 182.998C52.8379 182.992 53.0245 182.931 53.183 182.822L56.9108 180.259C56.9991 180.199 57.0966 180.152 57.1995 180.123L61.4035 178.907C61.7241 178.814 62.0698 178.887 62.3252 179.102L64.1203 180.612C64.2726 180.74 64.3832 180.911 64.4379 181.102L64.7284 182.118C64.8134 182.415 64.7175 182.734 64.4829 182.935V182.935C63.8577 183.471 64.3665 184.486 65.17 184.306L85.6966 179.707C86.1533 179.604 86.4779 179.199 86.4779 178.731V176.565C86.4779 176.115 86.7776 175.721 87.2105 175.601L89.8346 174.873C90.1968 174.772 90.472 174.477 90.5471 174.109L91.52 169.338L92.2251 166.622C92.2666 166.463 92.2679 166.295 92.2288 166.134L91.3438 162.502C91.2519 162.124 91.3868 161.728 91.6899 161.485L91.8457 161.36C92.1202 161.14 92.2589 160.792 92.2107 160.443L91.88 158.049C91.8598 157.902 91.8722 157.753 91.9165 157.613L94.6072 149.039C94.7288 148.652 95.0722 148.376 95.4766 148.342L97.7083 148.152C98.0231 148.125 98.3067 147.951 98.4732 147.683L100.516 144.391C100.516 144.39 100.517 144.389 100.517 144.389V144.389Z" stroke="#BA0033" stroke-width="2"/>
</svg>
